<?xml version="1.0" encoding="iso-8859-1"?>
<!-- Generator: Adobe Illustrator 19.0.0, SVG Export Plug-In . SVG Version: 6.00 Build 0)  -->
<svg version="1.1" id="Capa_1" xmlns="http://www.w3.org/2000/svg" xmlns:xlink="http://www.w3.org/1999/xlink" x="0px" y="0px"
	 viewBox="0 0 512 512" style="enable-background:new 0 0 512 512;" xml:space="preserve">
<g>
	<g>
		<path d="M468.147,90.115c-29.1-29.534-67.949-45.884-109.391-46.037c-0.198-0.001-0.392-0.001-0.59-0.001
			c-38.025,0-73.935,13.649-102.167,38.655c-28.235-25.007-64.139-38.655-102.167-38.655c-0.194,0-0.394,0-0.59,0.001
			C111.8,44.232,72.951,60.581,43.852,90.115c-59.284,60.169-58.338,158.294,2.106,218.74l123.024,123.023
			c23.243,23.244,54.147,36.044,87.019,36.044s63.775-12.8,87.019-36.044l123.024-123.023
			C526.486,248.41,527.431,150.285,468.147,90.115z M452.119,294.932L329.095,417.956c-19.525,19.525-45.483,30.277-73.095,30.277
			c-27.612,0-53.57-10.753-73.095-30.277L59.881,294.932C7.057,242.108,6.159,156.427,57.877,103.935
			c25.389-25.768,59.284-40.033,95.438-40.167c0.172-0.001,0.343-0.001,0.514-0.001c35.967,0,69.762,13.996,95.208,39.442
			c3.845,3.844,10.077,3.844,13.924,0c25.447-25.447,59.238-39.442,95.208-39.442c0.17,0,0.345,0,0.514,0.001
			c36.156,0.134,70.049,14.398,95.438,40.167C505.841,156.427,504.943,242.108,452.119,294.932z"/>
	</g>
</g>
<g>
	<g>
		<path d="M147.746,88.359c-37.925,0-71.933,21.014-88.753,54.842c-2.421,4.868-0.436,10.777,4.432,13.198
			c1.409,0.7,2.902,1.032,4.375,1.032c3.619,0,7.102-2.003,8.823-5.464c13.471-27.09,40.723-43.918,71.123-43.918
			c5.436,0,9.845-4.408,9.845-9.845S153.183,88.359,147.746,88.359z"/>
	</g>
</g>
<g>
	<g>
		<path d="M60.382,166.971c-5.393-0.655-10.304,3.191-10.958,8.589c-0.001,0.012-0.021,0.176-0.022,0.19
			c-0.653,5.393,3.186,10.297,8.581,10.956c0.405,0.049,0.806,0.074,1.206,0.074c4.904,0,9.15-3.66,9.759-8.653
			c0.001-0.003,0.023-0.195,0.024-0.199C69.624,172.532,65.779,167.625,60.382,166.971z"/>
	</g>
</g>
<g>
</g>
<g>
</g>
<g>
</g>
<g>
</g>
<g>
</g>
<g>
</g>
<g>
</g>
<g>
</g>
<g>
</g>
<g>
</g>
<g>
</g>
<g>
</g>
<g>
</g>
<g>
</g>
<g>
</g>
</svg>
