<?xml version="1.0" encoding="iso-8859-1"?>
<!-- Generator: Adobe Illustrator 19.0.0, SVG Export Plug-In . SVG Version: 6.00 Build 0)  -->
<svg version="1.1" id="Layer_1" xmlns="http://www.w3.org/2000/svg" xmlns:xlink="http://www.w3.org/1999/xlink" x="0px" y="0px"
	 viewBox="0 0 512 512" style="enable-background:new 0 0 512 512;" xml:space="preserve">
<g>
	<g>
		<path d="M365.143,23.733c-23.432,0-45.828,5.359-66.57,15.925c-15.987,8.144-30.511,19.32-42.571,32.687
			c-12.061-13.367-26.585-24.543-42.571-32.687c-20.742-10.567-43.14-15.925-66.57-15.925C65.881,23.733,0,89.613,0,170.591
			c0,46.793,39.091,95.448,71.886,128.025c58.61,58.222,110.036,112.106,157.217,164.729l19.303,21.531
			c1.935,2.158,4.697,3.391,7.594,3.391s5.66-1.233,7.594-3.391l19.303-21.531c47.181-52.624,98.607-106.507,157.217-164.73
			C472.909,266.039,512,217.384,512,170.591C512,89.613,446.119,23.733,365.143,23.733z M425.738,284.144
			c-58.891,58.503-110.583,112.666-158.03,165.586L256,462.79l-11.709-13.06c-47.447-52.921-99.138-107.083-158.03-165.586
			c-30.047-29.847-65.863-73.776-65.863-113.553c0-69.73,56.73-126.46,126.461-126.46c40.032,0,76.845,18.354,101.001,50.358
			c1.927,2.554,4.942,4.055,8.14,4.055c3.198,0,6.212-1.501,8.14-4.055c24.156-32.003,60.969-50.358,101.001-50.358
			c69.731,0,126.461,56.729,126.461,126.46C491.602,210.368,455.785,254.297,425.738,284.144z"/>
	</g>
</g>
<g>
	<g>
		<path d="M356.3,322.967c-3.984-3.983-10.442-3.983-14.425,0l-58.41,58.41c-3.983,3.984-3.983,10.442,0,14.425
			c1.991,1.992,4.602,2.987,7.212,2.987s5.221-0.995,7.213-2.987l58.41-58.41C360.283,333.408,360.283,326.95,356.3,322.967z"/>
	</g>
</g>
<g>
	<g>
		<path d="M272.728,406.529c-3.984-3.983-10.442-3.983-14.425,0l-7.475,7.475c-3.983,3.984-3.983,10.442,0,14.425
			c1.991,1.992,4.602,2.987,7.212,2.987s5.221-0.995,7.213-2.987l7.475-7.475C276.711,416.97,276.711,410.512,272.728,406.529z"/>
	</g>
</g>
<g>
</g>
<g>
</g>
<g>
</g>
<g>
</g>
<g>
</g>
<g>
</g>
<g>
</g>
<g>
</g>
<g>
</g>
<g>
</g>
<g>
</g>
<g>
</g>
<g>
</g>
<g>
</g>
<g>
</g>
</svg>
