<svg id="Capa_1" enable-background="new 0 0 511.987 511.987" height="512" viewBox="0 0 511.987 511.987" width="512" xmlns="http://www.w3.org/2000/svg"><g><path d="m480.633 299.936c-18.001-.701-33.178 13.354-33.884 31.324-1.404 35.733-3.871 72.086-7.338 108.152-36.074 3.467-72.428 5.934-108.152 7.337-17.978.707-32.029 15.908-31.323 33.888.691 17.579 15.006 31.349 32.588 31.349.432 0 .863-.009 1.3-.026 45.987-1.807 92.719-5.297 138.894-10.374 15.314-1.683 27.187-13.554 28.869-28.869 5.076-46.166 8.566-92.896 10.374-138.895.342-8.709-2.728-17.03-8.644-23.431-5.918-6.399-13.972-10.112-22.684-10.455zm6.043 171.143c-.909 8.274-7.323 14.688-15.598 15.598-45.828 5.038-92.205 8.502-137.843 10.295-9.847.396-17.928-7.189-18.312-16.924-.382-9.714 7.211-17.928 16.925-18.31 38.043-1.495 76.792-4.186 115.169-7.997 3.556-.353 6.369-3.166 6.722-6.722 3.812-38.367 6.503-77.116 7.998-115.17.372-9.477 8.209-16.937 17.618-16.937.229 0 .461.004.692.013 4.705.185 9.057 2.191 12.253 5.649 3.197 3.458 4.855 7.955 4.671 12.66-1.793 45.649-5.258 92.027-10.295 137.845z"/><path d="m31.341 212.051c.439.018.874.027 1.309.027 17.583 0 31.897-13.771 32.588-31.35 1.404-35.723 3.871-72.077 7.337-108.153 36.076-3.466 72.43-5.933 108.153-7.337 8.709-.342 16.764-4.056 22.68-10.456s8.986-14.722 8.643-23.431c-.342-8.709-4.057-16.766-10.461-22.685-6.406-5.921-14.74-8.994-23.425-8.638-45.99 1.807-92.721 5.297-138.895 10.373-15.315 1.683-27.187 13.555-28.87 28.869-5.076 46.175-8.566 92.906-10.373 138.895-.343 8.709 2.727 17.031 8.643 23.431s13.971 10.113 22.671 10.455zm-6.03-171.142c.909-8.274 7.323-14.688 15.598-15.598 45.827-5.038 92.205-8.502 137.852-10.295.242-.01.482-.015.723-.015 4.432 0 8.643 1.647 11.924 4.68 3.462 3.2 5.47 7.553 5.655 12.259s-1.474 9.202-4.67 12.66c-3.197 3.458-7.548 5.464-12.254 5.649-38.043 1.495-76.792 4.186-115.17 7.997-3.556.354-6.369 3.166-6.722 6.722-3.812 38.378-6.502 77.126-7.997 115.17-.374 9.498-8.104 16.938-17.6 16.938-.233 0-.466-.005-.71-.015-4.706-.185-9.057-2.191-12.254-5.649-3.196-3.458-4.855-7.954-4.67-12.66 1.793-45.638 5.257-92.016 10.295-137.843z"/><path d="m180.727 446.751c-35.674-1.4-72.027-3.868-108.149-7.341-3.473-36.122-5.94-72.476-7.341-108.152-.345-8.711-4.059-16.766-10.458-22.682-6.404-5.921-14.735-9.002-23.429-8.636-8.711.339-16.766 4.05-22.683 10.449s-8.985 14.721-8.64 23.429c1.804 45.924 5.293 92.655 10.369 138.897 1.687 15.313 13.561 27.187 28.876 28.874 16.686 1.833 33.896 3.498 51.151 4.948 4.139.355 7.754-2.718 8.102-6.846.347-4.127-2.718-7.755-6.846-8.102-17.128-1.439-34.209-3.092-50.767-4.911-8.277-.912-14.695-7.33-15.606-15.604-5.038-45.892-8.5-92.271-10.291-137.849-.187-4.705 1.47-9.199 4.666-12.655s7.546-5.46 12.263-5.644c4.701-.185 9.195 1.466 12.651 4.662 3.458 3.197 5.466 7.552 5.652 12.258 1.491 37.989 4.183 76.737 8.001 115.167.354 3.556 3.166 6.368 6.722 6.722 38.431 3.818 77.178 6.51 115.169 8.001 4.705.184 9.056 2.189 12.251 5.647 3.196 3.459 4.854 7.956 4.667 12.665-.372 9.496-8.101 16.934-17.596 16.934-.251 0-.51-.009-.706-.014-18.986-.747-38.271-1.792-57.317-3.108-4.136-.29-7.714 2.833-7.999 6.965-.286 4.132 2.833 7.714 6.965 7.999 19.194 1.327 38.628 2.38 57.852 3.135.397.012.808.023 1.206.023 17.583 0 31.895-13.769 32.584-31.343.345-8.71-2.723-17.034-8.638-23.436-5.916-6.399-13.972-10.113-22.681-10.452z"/><path d="m331.259 65.238c35.725 1.404 72.078 3.871 108.152 7.337 3.467 36.066 5.934 72.419 7.338 108.153.691 17.579 15.006 31.349 32.588 31.349.434 0 .87-.009 1.299-.026 8.709-.342 16.764-4.055 22.681-10.456 5.916-6.4 8.985-14.721 8.644-23.431-1.808-45.999-5.298-92.729-10.374-138.895-1.683-15.315-13.555-27.187-28.869-28.869-46.175-5.076-92.906-8.566-138.898-10.374-17.961-.702-33.177 13.355-33.883 31.324-.707 17.98 13.344 33.182 31.322 33.888zm1.284-50.235c.229 0 .46.004.69.013 45.64 1.793 92.017 5.257 137.845 10.295 8.274.909 14.688 7.323 15.598 15.598 5.037 45.817 8.502 92.195 10.296 137.844.185 4.706-1.474 9.202-4.671 12.66-3.196 3.458-7.548 5.464-12.263 5.649-9.834.397-17.918-7.193-18.301-16.924-1.495-38.054-4.187-76.803-7.998-115.17-.353-3.556-3.166-6.369-6.722-6.722-38.377-3.812-77.126-6.502-115.169-7.997-9.714-.382-17.307-8.596-16.925-18.31.373-9.476 8.211-16.936 17.62-16.936z"/><path d="m379.719 342.467c22.946-1.997 41.012-21.3 41.012-44.756 0-3.345-.371-6.686-1.104-9.933-3.016-13.352-14.614-21.626-28.229-20.102-2.913.325-5.623 1.089-8.106 2.19v-76.364c0-.052-.007-.103-.008-.155v-10.123c0-11.985-2.51-23.549-7.46-34.37-1.723-3.766-6.169-5.424-9.94-3.7-3.767 1.723-5.423 6.174-3.7 9.94 4.048 8.849 6.101 18.313 6.101 28.13v71.55c-8.288-1.44-14.61-8.681-14.61-17.37v-42.25c0-2.556-1.302-4.936-3.453-6.314s-4.856-1.568-7.18-.5l-24.859 11.43c-39.521 18.168-84.853 18.169-124.375 0l-24.86-11.43c-2.322-1.068-5.028-.879-7.18.5s-3.453 3.759-3.453 6.314v42.25c0 8.693-6.328 15.936-14.622 17.371v-61.274c0-.056-.007-.109-.008-.165v-10.113c0-37.33 30.375-67.7 67.71-67.7h89.19c17.004 0 33.246 6.322 45.735 17.802 3.048 2.803 7.794 2.603 10.597-.446 2.804-3.05 2.604-7.794-.446-10.597-15.264-14.031-35.111-21.759-55.886-21.759h-89.19c-45.606 0-82.71 37.099-82.71 82.7v79.31c0 .056.007.109.008.165v7.165c-2.483-1.1-5.192-1.863-8.104-2.188-13.604-1.517-25.213 6.75-28.229 20.102-.732 3.241-1.103 6.583-1.103 9.933 0 23.454 18.064 42.757 41.008 44.755 11.269 39.776 47.907 69.001 91.244 69.001h64.967c43.335.002 79.973-29.223 91.243-68.999zm3.574-48.967c0-7.245 5.045-10.389 9.768-10.915 4.729-.528 10.338 1.43 11.935 8.496.488 2.164.735 4.395.735 6.631 0 14.115-9.821 25.971-22.986 29.114.358-3.344.547-6.737.547-10.174v-23.152zm-277.037 4.212c0-2.24.247-4.47.735-6.629 1.596-7.069 7.216-9.021 11.935-8.499 4.709.525 9.739 3.656 9.765 10.86v23.208c0 3.437.189 6.83.547 10.173-13.163-3.145-22.982-15-22.982-29.113zm182.219 98.756h-64.967c-44.011 0-79.816-35.805-79.816-79.816v-46.761c16.587-1.528 29.622-15.511 29.622-32.485v-30.547l14.228 6.542c43.503 19.999 93.404 19.999 136.906 0l14.227-6.541v30.547c0 16.973 13.032 30.955 29.618 32.485v46.762c-.002 44.009-35.808 79.814-79.818 79.814z"/><path d="m194.533 267.642c-6.241 0-11.319 8.425-11.319 18.781s5.078 18.781 11.319 18.781 11.318-8.425 11.318-18.781-5.078-18.781-11.318-18.781z"/><path d="m317.454 267.642c-6.241 0-11.319 8.425-11.319 18.781s5.078 18.781 11.319 18.781 11.318-8.425 11.318-18.781-5.077-18.781-11.318-18.781z"/><path d="m244.327 310.536h23.332c4.143 0 7.5-3.358 7.5-7.5s-3.357-7.5-7.5-7.5h-23.332c-4.142 0-7.5 3.358-7.5 7.5s3.358 7.5 7.5 7.5z"/><path d="m282.289 326.727c-3.811-1.63-8.217.141-9.844 3.949-2.788 6.525-9.246 10.741-16.452 10.741s-13.664-4.216-16.452-10.741c-1.627-3.809-6.036-5.578-9.844-3.949-3.809 1.627-5.577 6.035-3.949 9.844 5.152 12.056 17.024 19.846 30.245 19.846s25.093-7.79 30.245-19.846c1.628-3.809-.14-8.217-3.949-9.844z"/></g></svg>