<?xml version="1.0" encoding="UTF-8"?>
<svg xmlns="http://www.w3.org/2000/svg" id="Layer_1" data-name="Layer 1" viewBox="0 0 512 512" width="512" height="512"><path d="M227.242,431.413a16.547,16.547,0,1,0,16.547,16.547A16.566,16.566,0,0,0,227.242,431.413Zm0,21.094a4.547,4.547,0,1,1,4.547-4.547A4.553,4.553,0,0,1,227.242,452.507Z"/><path d="M128,47h-2a6,6,0,0,0,0,12h2a6,6,0,0,0,0-12Z"/><path d="M240,47H148a6,6,0,0,0,0,12h92a6,6,0,0,0,0-12Z"/><path d="M57.575,171h45.762a6,6,0,0,0,0-12H57.575a6,6,0,1,0,0,12Z"/><path d="M122.3,165a6,6,0,0,0,6,6h57.2a6,6,0,0,0,0-12H128.3A6,6,0,0,0,122.3,165Z"/><path d="M155.1,191a6,6,0,0,0-6-6H57.575a6,6,0,1,0,0,12H149.1A6,6,0,0,0,155.1,191Z"/><path d="M185.5,185H174.059a6,6,0,1,0,0,12H185.5a6,6,0,0,0,0-12Z"/><path d="M107.5,211H57.575a6,6,0,1,0,0,12H107.5a6,6,0,1,0,0-12Z"/><path d="M185.5,211H132.458a6,6,0,1,0,0,12H185.5a6,6,0,0,0,0-12Z"/><path d="M462.456,259.317a27.837,27.837,0,0,0-18.3-18.442,26.737,26.737,0,0,0-11.449-1.1,27.882,27.882,0,0,0-19.524,11.48,27.835,27.835,0,0,0-49.375,5,28.173,28.173,0,0,0-3.808-2.2V58.19A48.407,48.407,0,0,0,311.621,10H142.862A47.966,47.966,0,0,0,95,58.19V116H47.69A26.69,26.69,0,0,0,21,142.69v92.581A26.686,26.686,0,0,0,47.661,262H95V453.81A47.966,47.966,0,0,0,142.862,502H311.621A48.407,48.407,0,0,0,360,453.81v-5.724a78.4,78.4,0,0,0,47.475.437l27.862-8.534a78.94,78.94,0,0,0,52.3-98.483ZM107,58.19A35.952,35.952,0,0,1,142.862,22H311.621A36.393,36.393,0,0,1,348,58.19V74H107ZM348,453.81A36.393,36.393,0,0,1,311.621,490H142.862A35.952,35.952,0,0,1,107,453.81V410H304.073l17.91,11.327A79.1,79.1,0,0,0,348,443.034Zm-85.171-84.092a27.976,27.976,0,0,1,34.8-5.78l1.783,1.016,9.58,31.273c.352,1.149.733,2.281,1.131,3.4Zm168.993,58.8-27.861,8.534a66.919,66.919,0,0,1-83.494-44.337L296.8,315.438a6,6,0,0,0-7.447-3.994h0a6,6,0,0,0-4.028,7.509l9.45,30.848a39.978,39.978,0,0,0-45.694,18.645,6,6,0,0,0,2.006,8.041L285.1,398H107V262h8.115c-.152,22,9.588,35.384,17.973,42.789a53.882,53.882,0,0,0,19.6,11.144,5.948,5.948,0,0,0,1.559.21,6.017,6.017,0,0,0,5.276-3.13,6.169,6.169,0,0,0,.518-4.45c-1.919-7.887-5-30.136,3.174-40.576,3.149-4.022,7.8-5.987,14.222-5.987h17.94A26.624,26.624,0,0,0,222,235.376v-92.73A26.646,26.646,0,0,0,195.354,116H163a6,6,0,0,0,0,12h32.376A14.624,14.624,0,0,1,210,142.624v92.6A14.776,14.776,0,0,1,195.224,250H177.436c-10.219,0-18.189,3.576-23.686,10.609-8.567,10.96-8.543,27.99-7.293,39.319-8.73-5.553-20.239-17.24-19.287-40.044A9.366,9.366,0,0,0,117.982,250l-.136,0H47.668A14.686,14.686,0,0,1,33,235.225V142.692A14.692,14.692,0,0,1,47.692,128H121a6,6,0,0,0,0-12H107V86H348V251.3a27.771,27.771,0,0,0-21.888,10.613l-25.727-83.991a27.854,27.854,0,0,0-53.266,16.316l25.9,84.558a6,6,0,0,0,7.447,3.994h0a6,6,0,0,0,4.027-7.509l-25.9-84.557a15.958,15.958,0,0,1,4.08-16.043,12.22,12.22,0,0,1,1.687-1.425,15.909,15.909,0,0,1,24.549,8.181l47.365,154.628a6,6,0,1,0,11.475-3.515l-14.935-48.756a15.854,15.854,0,1,1,30.317-9.287l14.934,48.756a6,6,0,0,0,11.475-3.514l-14.935-48.757a15.854,15.854,0,0,1,30.317-9.287l14.935,48.757a6,6,0,0,0,11.475-3.515l-10.668-34.826a15.96,15.96,0,0,1,4.14-16.1,11.984,11.984,0,0,1,1.7-1.425,15.956,15.956,0,0,1,16.749-1.118,15.739,15.739,0,0,1,7.722,9.359l25.177,82.189A66.923,66.923,0,0,1,431.822,428.515Z"/></svg>
